<?xml version="1.0" encoding="UTF-8" standalone="no"?>
<svg
   width="418.65536"
   zoomAndPan="magnify"
   viewBox="0 0 313.99152 125"
   height="166.66667"
   preserveAspectRatio="xMidYMid"
   version="1.0"
   id="svg16"
   sodipodi:docname="logo-text.svg"
   inkscape:version="1.3 (0e150ed, 2023-07-21)"
   xmlns:inkscape="http://www.inkscape.org/namespaces/inkscape"
   xmlns:sodipodi="http://sodipodi.sourceforge.net/DTD/sodipodi-0.dtd"
   xmlns="http://www.w3.org/2000/svg"
   xmlns:svg="http://www.w3.org/2000/svg">
  <sodipodi:namedview
     id="namedview16"
     pagecolor="#ffffff"
     bordercolor="#000000"
     borderopacity="0.25"
     inkscape:showpageshadow="2"
     inkscape:pageopacity="0.0"
     inkscape:pagecheckerboard="0"
     inkscape:deskcolor="#d1d1d1"
     inkscape:zoom="0.472"
     inkscape:cx="-145.12712"
     inkscape:cy="77.330508"
     inkscape:window-width="1312"
     inkscape:window-height="728"
     inkscape:window-x="60"
     inkscape:window-y="43"
     inkscape:window-maximized="0"
     inkscape:current-layer="svg16" />
  <defs
     id="defs1" />
  <path
     fill="#0054a6"
     d="M 9.152344,115.84766 C 18.304688,125 33.039062,125 62.5,125 c 29.46094,0 44.19531,0 53.34766,-9.15234 C 125,106.69531 125,91.96094 125,62.5 125,33.03906 125,18.30469 115.84766,9.15234 106.69531,0 91.96094,0 62.5,0 33.039062,0 18.304688,0 9.152344,9.15234 0,18.30469 0,33.03906 0,62.5 0,91.96094 0,106.69531 9.152344,115.84766 Z M 46.875,42.1875 c -11.21875,0 -20.3125,9.09375 -20.3125,20.3125 0,11.21875 9.09375,20.3125 20.3125,20.3125 11.21875,0 20.3125,-9.09375 20.3125,-20.3125 0,-2.58984 2.097656,-4.6875 4.6875,-4.6875 2.589844,0 4.6875,2.09766 4.6875,4.6875 0,16.39453 -13.292969,29.6875 -29.6875,29.6875 -16.394531,0 -29.6875,-13.29297 -29.6875,-29.6875 0,-16.39453 13.292969,-29.6875 29.6875,-29.6875 2.589844,0 4.6875,2.09766 4.6875,4.6875 0,2.58984 -2.097656,4.6875 -4.6875,4.6875 z M 98.4375,62.5 c 0,11.21875 -9.09375,20.3125 -20.3125,20.3125 -2.589844,0 -4.6875,2.09766 -4.6875,4.6875 0,2.58984 2.097656,4.6875 4.6875,4.6875 16.39453,0 29.6875,-13.29297 29.6875,-29.6875 0,-16.39453 -13.29297,-29.6875 -29.6875,-29.6875 -16.394531,0 -29.6875,13.29297 -29.6875,29.6875 0,2.58984 2.097656,4.6875 4.6875,4.6875 2.589844,0 4.6875,-2.09766 4.6875,-4.6875 0,-11.21875 9.09375,-20.3125 20.3125,-20.3125 11.21875,0 20.3125,9.09375 20.3125,20.3125 z m 0,0"
     fill-opacity="1"
     fill-rule="evenodd"
     id="path1" />
  <g
     fill="#000000"
     fill-opacity="1"
     id="g4"
     transform="translate(-12.5,-125)">
    <g
       transform="translate(150.55077,217.49999)"
       id="g3">
      <g
         id="g2">
        <path
           d="M 41.484375,-6.796875 V 0 H 6.125 V -53.296875 H 40.71875 V -46.75 h -27.375 v 16.3125 H 37.5625 v 6.375 H 13.34375 v 17.265625 z m 0,0"
           id="path2" />
      </g>
    </g>
  </g>
  <g
     fill="#000000"
     fill-opacity="1"
     id="g7"
     transform="translate(-12.5,-125)">
    <g
       transform="translate(195.00377,217.49999)"
       id="g6">
      <g
         id="g5">
        <path
           d="M 41.21875,-6.796875 V 0 H 2.046875 V -6.796875 L 31.453125,-46.75 H 4.5 v -6.546875 H 39.609375 V -46.75 L 10.28125,-6.796875 Z m 0,0"
           id="path4" />
      </g>
    </g>
  </g>
  <g
     fill="#000000"
     fill-opacity="1"
     id="g10"
     transform="translate(-12.5,-125)">
    <g
       transform="translate(238.18182,217.49999)"
       id="g9">
      <g
         id="g8">
        <path
           d="M 19.203125,0.6875 C 14.554688,0.6875 11.070312,-0.472656 8.75,-2.796875 6.425781,-5.128906 5.265625,-8.617188 5.265625,-13.265625 v -28.71875 h 6.96875 v 27.875 c 0,2.886719 0.734375,4.984375 2.203125,6.296875 1.476562,1.304688 3.804688,1.953125 6.984375,1.953125 1.925781,0 3.863281,-0.238281 5.8125,-0.71875 1.957031,-0.488281 3.929687,-1.242187 5.921875,-2.265625 V -41.984375 H 40.125 V 0 H 33.75 l -0.34375,-3.484375 h -0.171875 c -2.949219,1.53125 -5.5,2.609375 -7.65625,3.234375 -2.148437,0.625 -4.273437,0.9375 -6.375,0.9375 z m 0,0"
           id="path7" />
      </g>
    </g>
  </g>
  <g
     fill="#000000"
     fill-opacity="1"
     id="g13"
     transform="translate(-12.5,-125)">
    <g
       transform="translate(283.90975,217.49999)"
       id="g12">
      <g
         id="g11">
        <path
           d="m 12.578125,0 h -6.96875 v -41.984375 h 6.375 l 0.34375,3.5625 h 0.34375 c 2.207031,-1.300781 4.414063,-2.273437 6.625,-2.921875 2.207031,-0.65625 4.390625,-0.984375 6.546875,-0.984375 0.90625,0 1.515625,0 1.828125,0 0.3125,0 0.550781,0.02734 0.71875,0.07813 v 6.71875 c -0.398437,-0.113286 -0.890625,-0.179693 -1.484375,-0.20313 -0.59375,-0.03125 -1.515625,-0.04687 -2.765625,-0.04687 -2.042969,0 -4.042969,0.242188 -6,0.71875 -1.949219,0.480469 -3.804687,1.203125 -5.5625,2.171875 z m 0,0"
           id="path10" />
      </g>
    </g>
  </g>
  <g
     fill="#000000"
     fill-opacity="1"
     id="g16"
     transform="translate(-12.5,-125)">
    <g
       transform="translate(313.9134,217.49999)"
       id="g15">
      <g
         id="g14">
        <path
           d="M 12.578125,-56.53125 V 0 h -6.96875 v -56.53125 z m 0,0"
           id="path13" />
      </g>
    </g>
  </g>
</svg>
